<svg xmlns="http://www.w3.org/2000/svg" viewBox="0 0 512 512" fill="none">
  <defs>
    <filter id="g" x="-50%" y="-50%" width="200%" height="200%">
      <feGaussianBlur stdDeviation="6" result="b"/>
      <feMerge><feMergeNode in="b"/><feMergeNode in="SourceGraphic"/></feMerge>
    </filter>
    <filter id="gs" x="-50%" y="-50%" width="200%" height="200%">
      <feGaussianBlur stdDeviation="10" result="b"/>
      <feMerge><feMergeNode in="b"/><feMergeNode in="SourceGraphic"/></feMerge>
    </filter>
  </defs>
  <!-- Ring back -->
  <g filter="url(#g)" opacity="0.5">
    <ellipse cx="250" cy="300" rx="220" ry="75" transform="rotate(-28 250 300)"
             stroke="#4ade80" stroke-width="13" fill="none" stroke-dasharray="345 700"/>
  </g>
  <!-- Spheres -->
  <g filter="url(#g)">
    <circle cx="274" cy="408" r="7" fill="#4ade80"/>
    <circle cx="270" cy="383" r="12" fill="#4ade80"/>
    <circle cx="250" cy="305" r="58" fill="#4ade80"/>
    <circle cx="234" cy="218" r="26" fill="#4ade80"/>
  </g>
  <!-- Ring front -->
  <g filter="url(#g)">
    <ellipse cx="250" cy="300" rx="220" ry="75" transform="rotate(-28 250 300)"
             stroke="#4ade80" stroke-width="13" fill="none"
             stroke-dasharray="700 345" stroke-dashoffset="-345"/>
  </g>
  <!-- Starburst -->
  <g filter="url(#gs)" transform="translate(222 155)">
    <circle cx="0" cy="0" r="6" fill="#4ade80"/>
    <line x1="0" y1="-30" x2="0" y2="30" stroke="#4ade80" stroke-width="2.5" stroke-linecap="round"/>
    <line x1="-30" y1="0" x2="30" y2="0" stroke="#4ade80" stroke-width="2.5" stroke-linecap="round"/>
    <line x1="-21" y1="-21" x2="21" y2="21" stroke="#4ade80" stroke-width="2" stroke-linecap="round"/>
    <line x1="21" y1="-21" x2="-21" y2="21" stroke="#4ade80" stroke-width="2" stroke-linecap="round"/>
    <line x1="-12" y1="-27" x2="12" y2="27" stroke="#4ade80" stroke-width="1.2" stroke-linecap="round"/>
    <line x1="12" y1="-27" x2="-12" y2="27" stroke="#4ade80" stroke-width="1.2" stroke-linecap="round"/>
    <line x1="-27" y1="-12" x2="27" y2="12" stroke="#4ade80" stroke-width="1.2" stroke-linecap="round"/>
    <line x1="-27" y1="12" x2="27" y2="-12" stroke="#4ade80" stroke-width="1.2" stroke-linecap="round"/>
  </g>
</svg>
